<svg width="400" height="400" viewBox="0 0 400 400" fill="none" xmlns="http://www.w3.org/2000/svg">
<path d="M83.3333 316.667V133.333C83.3333 124.167 86.6 116.322 93.1333 109.8C99.6667 103.278 107.511 100.011 116.667 100H150V50C150 45.2778 151.6 41.3222 154.8 38.1333C158 34.9445 161.956 33.3445 166.667 33.3333H233.333C238.056 33.3333 242.017 34.9333 245.217 38.1333C248.417 41.3333 250.011 45.2889 250 50V100H283.333C292.5 100 300.35 103.267 306.883 109.8C313.417 116.333 316.678 124.178 316.667 133.333V316.667C316.667 325.833 313.406 333.683 306.883 340.217C300.361 346.75 292.511 350.011 283.333 350C283.333 354.722 281.733 358.683 278.533 361.883C275.333 365.083 271.378 366.678 266.667 366.667C262.222 366.667 259.1 364.65 257.3 360.617C255.5 356.583 253.067 353.044 250 350H150C150 354.722 148.4 358.683 145.2 361.883C142 365.083 138.044 366.678 133.333 366.667C128.889 366.667 125.767 364.65 123.967 360.617C122.167 356.583 119.733 353.044 116.667 350C107.5 350 99.6556 346.739 93.1333 340.217C86.6111 333.694 83.3445 325.844 83.3333 316.667ZM183.333 100H216.667V66.6667H183.333V100ZM200 200C214.722 200 229.1 198.128 243.133 194.383C257.167 190.639 270.567 185.011 283.333 177.5V133.333H116.667V177.5C129.444 185 142.85 190.628 156.883 194.383C170.917 198.139 185.289 200.011 200 200ZM183.333 233.333V232.5C171.667 231.111 160.278 229.028 149.167 226.25C138.056 223.472 127.222 219.722 116.667 215V316.667H283.333V215C272.778 219.722 261.944 223.472 250.833 226.25C239.722 229.028 228.333 231.111 216.667 232.5V233.333C216.667 238.056 215.067 242.017 211.867 245.217C208.667 248.417 204.711 250.011 200 250C195.289 249.989 191.333 248.389 188.133 245.2C184.933 242.011 183.333 238.056 183.333 233.333Z" fill="#3664CF"/>
</svg>
