<svg xmlns="http://www.w3.org/2000/svg" width="120" height="120" viewBox="0 0 60 60" fill="none" stroke="#4136d9" stroke-width="2" stroke-linecap="round" stroke-linejoin="round" class="lucide lucide-luggage-icon lucide-luggage"><path d="M15 50a5 5 0 0 1 -5 -5V20a5 5 0 0 1 5 -5h30a5 5 0 0 1 5 5v25a5 5 0 0 1 -5 5"/><path d="M20 45V10a5 5 0 0 1 5 -5h10a5 5 0 0 1 5 5v35"/><path d="M25 50h10"/><path cx="16" cy="20" r="2" d="M45 50A5 5 0 0 1 40 55A5 5 0 0 1 35 50A5 5 0 0 1 45 50z"/><path cx="8" cy="20" r="2" d="M25 50A5 5 0 0 1 20 55A5 5 0 0 1 15 50A5 5 0 0 1 25 50z"/></svg>